<?xml version="1.0" encoding="UTF-8"?>
<svg width="215px" height="215px" viewBox="0 0 215 215" version="1.1" xmlns="http://www.w3.org/2000/svg" xmlns:xlink="http://www.w3.org/1999/xlink">
    <!-- Generator: Sketch 39.1 (31720) - http://www.bohemiancoding.com/sketch -->
    <title>Artboard</title>
    <desc>Created with Sketch.</desc>
    <defs></defs>
    <g id="Page-1" stroke="none" stroke-width="1" fill="none" fill-rule="evenodd">
        <g id="Artboard" fill="#FFFFFF">
            <path d="M69.48,70.5989104 C74.5680254,73.6229255 77.112,77.270889 77.112,81.5429104 C77.112,84.9029272 75.2400187,88.5028912 71.496,92.3429104 C69.3359892,94.5989217 66.7800148,96.5429022 63.828,98.1749104 C60.8759852,99.8069186 57.9600144,100.982907 55.08,101.70291 C50.087975,102.902916 45.5760202,103.50291 41.544,103.50291 C40.6799957,103.50291 39.8160043,103.478911 38.952,103.43091 C35.4479825,108.566936 31.8480185,112.934892 28.152,116.53491 C22.7279729,121.622936 16.7520326,124.16691 10.224,124.16691 C3.9839688,124.16691 0.1440072,122.462927 -1.296,119.05491 C-1.63200168,118.238906 -1.8,117.290916 -1.8,116.21091 C-1.8,115.130905 -1.24800552,113.966917 -0.144,112.71891 C1.58400864,110.750901 4.0079844,109.76691 7.128,109.76691 C9.14401008,109.76691 11.255989,110.126907 13.464,110.84691 C14.2800041,111.134912 14.5680012,111.446909 14.328,111.78291 C14.135999,111.974911 13.5120053,111.878912 12.456,111.49491 C11.3999947,111.110908 10.0920078,110.91891 8.532,110.91891 C6.9719922,110.91891 5.60400588,111.506905 4.428,112.68291 C3.25199412,113.858916 2.664,115.118904 2.664,116.46291 C2.664,116.990913 2.75999904,117.518908 2.952,118.04691 C3.72000384,120.638923 5.903982,121.93491 9.504,121.93491 C14.8800269,121.93491 20.1599741,119.438935 25.344,114.44691 C29.0400185,110.846892 33.191977,104.366957 37.8,95.0069104 C39.5760089,91.5028929 41.7839868,87.6029319 44.424,83.3069104 C47.0640132,79.0108889 49.7519863,75.3269258 52.488,72.2549104 C52.8240017,71.9189087 53.2559974,71.486913 53.784,70.9589104 C54.792005,69.8069046 55.6319966,68.8949138 56.304,68.2229104 C52.8479827,67.742908 49.1520197,67.5029104 45.216,67.5029104 C41.2799803,67.5029104 37.5600175,67.8269072 34.056,68.4749104 C30.5519825,69.1229136 27.504013,69.890906 24.912,70.7789104 C22.319987,71.6669148 19.6920133,72.8189033 17.028,74.2349104 C14.3639867,75.6509175 12.1200091,77.4388996 10.296,79.5989104 C7.895988,82.3349241 6.696,85.1908955 6.696,88.1669104 C6.696,89.9909195 7.34399352,91.6949025 8.64,93.2789104 C10.032007,94.9589188 11.8199891,95.7989104 14.004,95.7989104 C16.1880109,95.7989104 18.2999898,94.9589188 20.34,93.2789104 C22.3800102,91.598902 23.8319957,89.5349226 24.696,87.0869104 C24.7440002,86.7509087 24.8519992,86.522911 25.02,86.4029104 C25.1880008,86.2829098 25.3439993,86.2949097 25.488,86.4389104 C25.6320007,86.5829111 25.704,86.8229087 25.704,87.1589104 C25.6559998,90.278926 24.4440119,92.7389014 22.068,94.5389104 C19.6919881,96.3389194 17.0640144,97.2389104 14.184,97.2389104 C10.9199837,97.2389104 8.25601032,96.27892 6.192,94.3589104 C4.12798968,92.4389008 3.096,89.9669255 3.096,86.9429104 C3.096,84.1588965 3.83999256,81.6509216 5.328,79.4189104 C6.81600744,77.1868992 8.59198968,75.3749174 10.656,73.9829104 C12.7200103,72.5909034 15.0959866,71.3429159 17.784,70.2389104 C22.3440228,68.4149013 27.1319749,67.1309141 32.148,66.3869104 C37.1640251,65.6429067 41.8439783,65.2709104 46.188,65.2709104 C50.5320217,65.2709104 54.5519815,65.6549066 58.248,66.4229104 C59.9760086,65.0789037 61.4879935,64.1669128 62.784,63.6869104 C64.0800065,63.206908 64.8119992,62.9669104 64.98,62.9669104 C65.1480008,62.9669104 65.2559998,62.9909102 65.304,63.0389104 C65.5920014,63.0389104 65.6520008,63.1949088 65.484,63.5069104 C65.3159992,63.818912 64.7640047,64.2869073 63.828,64.9109104 C62.8919953,65.5349135 61.9920043,66.2789061 61.128,67.1429104 C64.2000154,67.9589145 66.9839875,69.110903 69.48,70.5989104 L69.48,70.5989104 Z M40.968,101.91891 C44.4720175,101.91891 48.2759795,101.306917 52.38,100.08291 C56.4840205,98.8589043 60.1199842,97.0709222 63.288,94.7189104 C69.4320307,90.0628871 72.504,85.2629351 72.504,80.3189104 C72.504,74.7028823 68.2560425,70.8869205 59.76,68.8709104 C57.0719866,72.6149291 53.5920214,78.3028722 49.32,85.9349104 C45.0479786,93.5669486 41.9280098,98.8948953 39.96,101.91891 L40.968,101.91891 L40.968,101.91891 Z M76.896,96.1589104 C80.4000175,96.1589104 82.152,98.3668883 82.152,102.78291 C82.152,104.79892 81.6240053,106.958899 80.568,109.26291 C79.2239933,112.382926 77.2080134,115.214898 74.52,117.75891 C75.1440031,118.958916 76.2719918,119.55891 77.904,119.55891 C79.2000065,119.55891 80.4239942,118.910917 81.576,117.61491 C83.0160072,116.126903 84.0479969,114.818916 84.672,113.69091 C85.2960031,112.562905 85.7519986,111.734913 86.04,111.20691 C86.3280014,110.678908 86.6999977,109.922915 87.156,108.93891 C87.6120023,107.954905 87.8879995,107.354911 87.984,107.13891 C88.0800005,106.922909 88.2479988,106.81491 88.488,106.81491 C88.9680024,106.76691 89.208,106.934908 89.208,107.31891 C89.208,107.462911 89.1600005,107.630909 89.064,107.82291 L88.632,108.83091 C88.3439986,109.502914 88.1280007,109.982909 87.984,110.27091 C87.8399993,110.558912 87.5880018,111.074907 87.228,111.81891 C86.8679982,112.562914 86.5560013,113.150908 86.292,113.58291 C86.0279987,114.014913 85.6680023,114.590907 85.212,115.31091 C84.7559977,116.030914 84.3480018,116.606908 83.988,117.03891 C83.6279982,117.470913 83.1840026,117.950908 82.656,118.47891 C82.1279974,119.006913 81.6240024,119.414909 81.144,119.70291 C79.943994,120.422914 78.8160053,120.78291 77.76,120.78291 C75.7919902,120.78291 74.2560055,120.158917 73.152,118.91091 C70.943989,120.542919 68.9040094,121.35891 67.032,121.35891 C63.5279825,121.35891 61.776,119.150932 61.776,114.73491 C61.776,112.7189 62.3039947,110.558922 63.36,108.25491 C64.8000072,104.894894 66.8279869,102.038922 69.444,99.6869104 C72.0600131,97.3348986 74.5439882,96.1589104 76.896,96.1589104 L76.896,96.1589104 Z M77.688,98.3909104 C76.3919935,98.3909104 74.8560089,99.2549018 73.08,100.98291 C71.3039911,102.710919 69.720007,105.062896 68.328,108.03891 C66.6479916,111.494928 65.808,114.326899 65.808,116.53491 C65.808,118.742921 66.6479916,119.84691 68.328,119.84691 C69.528006,119.84691 70.8719926,119.198917 72.36,117.90291 C71.5919962,116.798905 71.208,115.622917 71.208,114.37491 C71.3040005,112.3109 72.1439921,111.27891 73.728,111.27891 C74.3520031,111.27891 74.867998,111.494908 75.276,111.92691 C75.684002,112.358913 75.888,112.754909 75.888,113.11491 C75.888,113.474912 75.8400005,113.846908 75.744,114.23091 C76.5600041,113.030904 77.4959947,111.326921 78.552,109.11891 C79.752006,106.670898 80.352,104.270922 80.352,101.91891 C80.352,99.5668986 79.4640089,98.3909104 77.688,98.3909104 L77.688,98.3909104 Z M97.632,92.4869104 C97.632,94.6469212 96.2640137,96.6869008 93.528,98.6069104 C94.4880048,98.6549106 95.771992,98.6789104 97.38,98.6789104 C98.988008,98.6789104 101.015988,98.5589116 103.464,98.3189104 C103.56,98.4629111 103.608,98.8469073 103.608,99.4709104 C103.608,100.094914 103.320003,101.018904 102.744,102.24291 C102.167997,103.466917 101.652002,104.522906 101.196,105.41091 C100.739998,106.298915 100.308002,107.138906 99.9,107.93091 C99.491998,108.722914 99.0360025,109.694905 98.532,110.84691 C98.0279975,111.998916 97.6080017,113.054906 97.272,114.01491 C96.071994,117.662929 96.2639921,119.48691 97.848,119.48691 C99.8640101,119.48691 102.83998,115.47895 106.776,107.46291 C107.112002,106.838907 107.387999,106.59891 107.604,106.74291 C107.820001,106.886911 107.928,107.066909 107.928,107.28291 C107.928,107.498911 107.616003,108.242904 106.992,109.51491 C106.367997,110.786917 105.696004,112.094904 104.976,113.43891 C104.255996,114.782917 103.128008,116.342902 101.592,118.11891 C99.7679909,120.326921 98.0160084,121.43091 96.336,121.43091 C94.4639906,121.43091 93.1680036,120.302922 92.448,118.04691 C92.3039993,117.614908 92.232,116.966915 92.232,116.10291 C92.232,115.238906 92.5079972,114.086918 93.06,112.64691 C93.6120028,111.206903 94.487994,109.454921 95.688,107.39091 C96.888006,105.3269 97.5599993,104.114912 97.704,103.75491 C97.8480007,103.394909 97.92,103.046912 97.92,102.71091 C97.92,101.222903 96.0000192,100.430911 92.16,100.33491 L91.296,102.63891 C88.2719849,110.55895 85.3680139,115.862897 82.584,118.55091 C82.1039976,118.982913 81.864,118.838914 81.864,118.11891 C81.864,117.97491 81.9119995,117.806911 82.008,117.61491 C84.6960134,114.062893 87.0239902,109.862935 88.992,105.01491 C90.9600098,100.166886 92.3279962,95.5589322 93.096,91.1909104 C93.3840014,89.702903 94.0559947,88.9589104 95.112,88.9589104 C96.1680053,88.9589104 96.9359976,89.6309037 97.416,90.9749104 C97.5600007,91.4069126 97.632,91.9109075 97.632,92.4869104 L97.632,92.4869104 Z M104.832,115.59891 C104.832,111.61489 106.751981,104.942957 110.592,95.5829104 L106.848,95.5829104 C106.607999,95.5829104 106.452,95.4509117 106.38,95.1869104 C106.308,94.9229091 106.331999,94.6589117 106.452,94.3949104 C106.572001,94.1309091 106.751999,93.9989104 106.992,93.9989104 L111.312,93.9989104 C113.040009,90.2068914 114.647993,87.0389231 116.136,84.4949104 C117.624007,81.9508977 118.991994,80.2349148 120.24,79.3469104 C121.488006,78.458906 122.387997,78.0149104 122.94,78.0149104 C123.492003,78.0149104 123.887999,78.0629099 124.128,78.1589104 C125.232006,78.686913 125.784,79.7789021 125.784,81.4349104 C125.784,83.0909187 125.232006,85.0948986 124.128,87.4469104 C123.023994,89.7989222 121.944005,91.9829003 120.888,93.9989104 L124.344,93.9989104 C124.584001,93.9989104 124.74,94.1309091 124.812,94.3949104 C124.884,94.6589117 124.860001,94.9229091 124.74,95.1869104 C124.619999,95.4509117 124.440001,95.5829104 124.2,95.5829104 L120.024,95.5829104 C117.383987,100.046933 114.192019,104.006893 110.448,107.46291 L108.792,114.80691 C108.647999,115.430914 108.576,116.042907 108.576,116.64291 C108.576,117.242913 108.743998,117.854907 109.08,118.47891 C109.416002,119.102914 109.943996,119.41491 110.664,119.41491 C111.480004,119.41491 112.391995,119.126913 113.4,118.55091 C115.704012,116.822902 118.247986,113.198938 121.032,107.67891 C121.224001,107.246908 121.451999,106.982911 121.716,106.88691 C121.980001,106.79091 122.136,106.850909 122.184,107.06691 C122.232,107.282911 122.160001,107.630908 121.968,108.11091 C120.383992,111.422927 119.136005,113.774903 118.224,115.16691 C115.631987,119.342931 112.872015,121.43091 109.944,121.43091 C108.455993,121.43091 107.232005,120.878916 106.272,119.77491 C105.311995,118.670905 104.832,117.278919 104.832,115.59891 L104.832,115.59891 Z M119.304,93.9989104 C122.472016,88.3348821 124.056,84.3989214 124.056,82.1909104 C124.056,81.2309056 123.888002,80.7509104 123.552,80.7509104 C123.023997,80.7509104 122.220005,81.5189027 121.14,83.0549104 C120.059995,84.5909181 118.248013,88.2388816 115.704,93.9989104 L119.304,93.9989104 Z M118.368,95.5829104 L114.984,95.5829104 C114.407997,96.9269171 113.11201,100.118885 111.096,105.15891 C113.688013,102.470897 116.111989,99.2789289 118.368,95.5829104 L118.368,95.5829104 Z M112.536,146.41491 C109.895987,146.41491 108.576,145.094924 108.576,142.45491 C108.576,138.662891 111.047975,130.934969 115.992,119.27091 C115.415997,118.310906 115.128,117.518914 115.128,116.89491 C115.128,114.8789 115.583995,113.534914 116.496,112.86291 C117.168003,112.286908 117.731998,111.99891 118.188,111.99891 C118.644002,111.99891 118.943999,112.02291 119.088,112.07091 C124.560027,99.7348487 129.479978,89.4869512 133.848,81.3269104 C134.712004,79.5989018 135.599995,78.3269145 136.512,77.5109104 C137.424005,76.6949063 138.575993,76.2869104 139.968,76.2869104 C140.160001,76.2869104 140.639996,76.3589097 141.408,76.5029104 C142.176004,76.6469111 142.751998,76.6949106 143.136,76.6469104 C140.879989,78.758921 137.71202,83.4148744 133.632,90.6149104 C129.55198,97.8149464 125.688018,105.518869 122.04,113.72691 C123.144006,115.070917 123.911998,116.870899 124.344,119.12691 L124.56,120.06291 L124.776,120.06291 C126.072006,120.06291 127.439993,119.306918 128.88,117.79491 C130.320007,116.282903 131.495995,114.722918 132.408,113.11491 C133.320005,111.506902 134.063997,110.090917 134.64,108.86691 C135.216003,107.642904 135.575999,106.982911 135.72,106.88691 C135.864001,106.79091 135.995999,106.75491 136.116,106.77891 C136.236001,106.802911 136.344,106.85091 136.44,106.92291 C136.536,106.994911 136.584,107.11491 136.584,107.28291 C136.584,107.450911 136.536,107.630909 136.44,107.82291 C132.45598,116.894956 128.544019,121.43091 124.704,121.43091 C124.752,122.198914 124.776,123.458902 124.776,125.21091 C124.776,126.962919 124.344004,129.566893 123.48,133.02291 C122.615996,136.478928 121.16401,139.574897 119.124,142.31091 C117.08399,145.046924 114.888012,146.41491 112.536,146.41491 L112.536,146.41491 Z M112.464,142.45491 C112.464,143.846917 112.847996,144.54291 113.616,144.54291 C114.528005,144.54291 115.787992,143.474921 117.396,141.33891 C119.004008,139.2029 120.371994,136.274929 121.5,132.55491 C122.628006,128.834892 123.192,125.462926 123.192,122.43891 L123.192,121.71891 L122.544,121.71891 C121.151993,121.71891 119.976005,121.334914 119.016,120.56691 C114.647978,131.606966 112.464,138.902893 112.464,142.45491 L112.464,142.45491 Z M122.616,120.35091 L123.048,120.35091 C122.903999,118.2869 122.328005,116.630917 121.32,115.38291 L119.736,118.98291 C120.216002,119.894915 121.175993,120.35091 122.616,120.35091 L122.616,120.35091 Z M148.392,96.1589104 C151.896018,96.1589104 153.648,98.3668883 153.648,102.78291 C153.648,104.79892 153.120005,106.958899 152.064,109.26291 C150.719993,112.382926 148.704013,115.214898 146.016,117.75891 C146.640003,118.958916 147.767992,119.55891 149.4,119.55891 C150.696006,119.55891 151.919994,118.910917 153.072,117.61491 C154.512007,116.126903 155.543997,114.818916 156.168,113.69091 C156.792003,112.562905 157.247999,111.734913 157.536,111.20691 C157.824001,110.678908 158.195998,109.922915 158.652,108.93891 C159.108002,107.954905 159.384,107.354911 159.48,107.13891 C159.576,106.922909 159.743999,106.81491 159.984,106.81491 C160.464002,106.76691 160.704,106.934908 160.704,107.31891 C160.704,107.462911 160.656,107.630909 160.56,107.82291 L160.128,108.83091 C159.839999,109.502914 159.624001,109.982909 159.48,110.27091 C159.335999,110.558912 159.084002,111.074907 158.724,111.81891 C158.363998,112.562914 158.052001,113.150908 157.788,113.58291 C157.523999,114.014913 157.164002,114.590907 156.708,115.31091 C156.251998,116.030914 155.844002,116.606908 155.484,117.03891 C155.123998,117.470913 154.680003,117.950908 154.152,118.47891 C153.623997,119.006913 153.120002,119.414909 152.64,119.70291 C151.439994,120.422914 150.312005,120.78291 149.256,120.78291 C147.28799,120.78291 145.752006,120.158917 144.648,118.91091 C142.439989,120.542919 140.400009,121.35891 138.528,121.35891 C135.023982,121.35891 133.272,119.150932 133.272,114.73491 C133.272,112.7189 133.799995,110.558922 134.856,108.25491 C136.296007,104.894894 138.323987,102.038922 140.94,99.6869104 C143.556013,97.3348986 146.039988,96.1589104 148.392,96.1589104 L148.392,96.1589104 Z M149.184,98.3909104 C147.887994,98.3909104 146.352009,99.2549018 144.576,100.98291 C142.799991,102.710919 141.216007,105.062896 139.824,108.03891 C138.143992,111.494928 137.304,114.326899 137.304,116.53491 C137.304,118.742921 138.143992,119.84691 139.824,119.84691 C141.024006,119.84691 142.367993,119.198917 143.856,117.90291 C143.087996,116.798905 142.704,115.622917 142.704,114.37491 C142.8,112.3109 143.639992,111.27891 145.224,111.27891 C145.848003,111.27891 146.363998,111.494908 146.772,111.92691 C147.180002,112.358913 147.384,112.754909 147.384,113.11491 C147.384,113.474912 147.336,113.846908 147.24,114.23091 C148.056004,113.030904 148.991995,111.326921 150.048,109.11891 C151.248006,106.670898 151.848,104.270922 151.848,101.91891 C151.848,99.5668986 150.960009,98.3909104 149.184,98.3909104 L149.184,98.3909104 Z M163.368,107.46291 C163.32,107.654911 163.104002,108.314905 162.72,109.44291 C162.335998,110.570916 162.012001,111.650905 161.748,112.68291 C161.483999,113.714916 161.352,114.746905 161.352,115.77891 C161.352,116.810916 161.591998,117.770906 162.072,118.65891 C162.552002,119.546915 163.319995,119.99091 164.376,119.99091 C166.104009,119.99091 167.783992,118.826922 169.416,116.49891 C171.048008,114.170899 172.775991,111.206928 174.6,107.60691 C174.984002,106.934907 175.343998,106.67091 175.68,106.81491 C175.920001,107.006911 175.968001,107.258909 175.824,107.57091 C175.679999,107.882912 175.380002,108.554905 174.924,109.58691 C174.467998,110.618916 174.132001,111.338908 173.916,111.74691 C173.699999,112.154912 173.316003,112.874905 172.764,113.90691 C172.211997,114.938916 171.732002,115.706908 171.324,116.21091 C170.915998,116.714913 170.364003,117.362906 169.668,118.15491 C168.971997,118.946914 168.312003,119.534908 167.688,119.91891 C166.007992,120.974916 164.424007,121.50291 162.936,121.50291 C161.447993,121.50291 160.296004,121.178914 159.48,120.53091 C158.663996,119.882907 158.172001,119.186914 158.004,118.44291 C157.835999,117.698907 157.752,117.038913 157.752,116.46291 C157.752,115.886908 157.776,115.142915 157.824,114.23091 C157.968001,112.694903 158.267998,111.206918 158.724,109.76691 C159.180002,108.326903 159.432,107.510911 159.48,107.31891 C160.584006,103.33489 162.15599,98.9909339 164.196,94.2869104 C166.23601,89.5828869 167.963993,86.0429223 169.38,83.6669104 C170.796007,81.2908985 171.911996,79.6709147 172.728,78.8069104 C174.360008,77.0789018 175.967992,76.2149104 177.552,76.2149104 C178.656006,76.2149104 179.399998,77.0069025 179.784,78.5909104 C179.832,78.8789118 179.856,79.2389082 179.856,79.6709104 C179.856,81.3029186 179.280006,83.3668979 178.128,85.8629104 C173.999979,95.0309562 169.080029,102.230884 163.368,107.46291 L163.368,107.46291 Z M163.944,105.15891 C166.392012,102.662898 168.815988,99.5189294 171.216,95.7269104 C173.616012,91.9348914 175.379994,88.7069237 176.508,86.0429104 C177.636006,83.3788971 178.2,81.5669152 178.2,80.6069104 C178.2,79.6469056 178.032002,79.1669104 177.696,79.1669104 C177.215998,79.1669104 176.304007,80.1149009 174.96,82.0109104 C173.615993,83.9069199 171.804011,87.3148858 169.524,92.2349104 C167.243989,97.154935 165.384007,101.462892 163.944,105.15891 L163.944,105.15891 Z M184.536,93.3509104 C183.863997,93.9269133 183.120004,94.2149104 182.304,94.2149104 C181.487996,94.2149104 180.840002,93.9269133 180.36,93.3509104 C179.879998,92.7749075 179.688,92.0789145 179.784,91.2629104 C179.928001,90.4469063 180.335997,89.7509133 181.008,89.1749104 C181.680003,88.5989075 182.423996,88.3109104 183.24,88.3109104 C184.056004,88.3109104 184.715997,88.5989075 185.22,89.1749104 C185.724003,89.7509133 185.904001,90.4469063 185.76,91.2629104 C185.615999,92.0789145 185.208003,92.7749075 184.536,93.3509104 L184.536,93.3509104 Z M177.48,119.77491 C178.392005,119.77491 179.351995,119.318915 180.36,118.40691 C182.136009,116.630902 184.391986,113.006938 187.128,107.53491 C187.464002,106.814907 187.799998,106.598909 188.136,106.88691 C188.232,106.982911 188.28,107.138909 188.28,107.35491 C188.28,107.570911 188.088002,108.098906 187.704,108.93891 C187.319998,109.778915 186.972002,110.534907 186.66,111.20691 C186.347998,111.878914 185.748004,112.970903 184.86,114.48291 C183.971996,115.994918 183.168004,117.158906 182.448,117.97491 C180.47999,120.230922 178.620009,121.35891 176.868,121.35891 C175.115991,121.35891 173.856004,120.830916 173.088,119.77491 C172.319996,118.718905 171.936,117.542917 171.936,116.24691 C171.936,114.950904 172.247997,113.534918 172.872,111.99891 L177.48,100.26291 C177.576,99.974909 177.624,99.5909128 177.624,99.1109104 C177.624,98.630908 177.336003,98.0069142 176.76,97.2389104 L180.72,97.1669104 C181.824006,97.1669104 182.471999,97.3709084 182.664,97.7789104 C182.856001,98.1869124 182.712002,98.8229061 182.232,99.6869104 L176.472,113.15091 C175.655996,114.926919 175.248,116.438904 175.248,117.68691 C175.248,119.078917 175.991993,119.77491 177.48,119.77491 L177.48,119.77491 Z M200.304,96.1589104 C203.808018,96.1589104 205.56,98.3668883 205.56,102.78291 C205.56,104.79892 205.032005,106.958899 203.976,109.26291 C202.631993,112.382926 200.616013,115.214898 197.928,117.75891 C198.552003,118.958916 199.679992,119.55891 201.312,119.55891 C202.608006,119.55891 203.831994,118.910917 204.984,117.61491 C206.424007,116.126903 207.455997,114.818916 208.08,113.69091 C208.704003,112.562905 209.159999,111.734913 209.448,111.20691 C209.736001,110.678908 210.107998,109.922915 210.564,108.93891 C211.020002,107.954905 211.296,107.354911 211.392,107.13891 C211.488,106.922909 211.655999,106.81491 211.896,106.81491 C212.376002,106.76691 212.616,106.934908 212.616,107.31891 C212.616,107.462911 212.568,107.630909 212.472,107.82291 L212.04,108.83091 C211.751999,109.502914 211.536001,109.982909 211.392,110.27091 C211.247999,110.558912 210.996002,111.074907 210.636,111.81891 C210.275998,112.562914 209.964001,113.150908 209.7,113.58291 C209.435999,114.014913 209.076002,114.590907 208.62,115.31091 C208.163998,116.030914 207.756002,116.606908 207.396,117.03891 C207.035998,117.470913 206.592003,117.950908 206.064,118.47891 C205.535997,119.006913 205.032002,119.414909 204.552,119.70291 C203.351994,120.422914 202.224005,120.78291 201.168,120.78291 C199.19999,120.78291 197.664006,120.158917 196.56,118.91091 C194.351989,120.542919 192.312009,121.35891 190.44,121.35891 C186.935982,121.35891 185.184,119.150932 185.184,114.73491 C185.184,112.7189 185.711995,110.558922 186.768,108.25491 C188.208007,104.894894 190.235987,102.038922 192.852,99.6869104 C195.468013,97.3348986 197.951988,96.1589104 200.304,96.1589104 L200.304,96.1589104 Z M201.096,98.3909104 C199.799994,98.3909104 198.264009,99.2549018 196.488,100.98291 C194.711991,102.710919 193.128007,105.062896 191.736,108.03891 C190.055992,111.494928 189.216,114.326899 189.216,116.53491 C189.216,118.742921 190.055992,119.84691 191.736,119.84691 C192.936006,119.84691 194.279993,119.198917 195.768,117.90291 C194.999996,116.798905 194.616,115.622917 194.616,114.37491 C194.712,112.3109 195.551992,111.27891 197.136,111.27891 C197.760003,111.27891 198.275998,111.494908 198.684,111.92691 C199.092002,112.358913 199.296,112.754909 199.296,113.11491 C199.296,113.474912 199.248,113.846908 199.152,114.23091 C199.968004,113.030904 200.903995,111.326921 201.96,109.11891 C203.160006,106.670898 203.76,104.270922 203.76,101.91891 C203.76,99.5668986 202.872009,98.3909104 201.096,98.3909104 L201.096,98.3909104 Z" id="Portfolio" transform="translate(105.408000, 104.690910) rotate(-30.000000) translate(-105.408000, -104.690910) "></path>
            <path d="M78.2133991,136.936309 C79.3814049,136.936309 79.9653991,137.672302 79.9653991,139.144309 C79.9653991,139.816313 79.7894008,140.536306 79.4373991,141.304309 C78.9893968,142.344315 78.3174035,143.288305 77.4213991,144.136309 C77.6294001,144.536311 78.0053963,144.736309 78.5493991,144.736309 C78.9814012,144.736309 79.3893971,144.520312 79.7733991,144.088309 C80.2534015,143.592307 80.597398,143.156311 80.8053991,142.780309 C81.0134001,142.404308 81.1653986,142.12831 81.2613991,141.952309 C81.3573995,141.776309 81.4813983,141.524311 81.6333991,141.196309 C81.7853998,140.868308 81.8773989,140.66831 81.9093991,140.596309 C81.9413992,140.524309 81.9973987,140.488309 82.0773991,140.488309 C82.2373999,140.472309 82.3173991,140.528309 82.3173991,140.656309 C82.3173991,140.70431 82.3013992,140.760309 82.2693991,140.824309 L82.1253991,141.160309 C82.0293986,141.384311 81.9573993,141.544309 81.9093991,141.640309 C81.8613988,141.73631 81.7773997,141.908308 81.6573991,142.156309 C81.5373985,142.404311 81.4333995,142.600309 81.3453991,142.744309 C81.2573986,142.88831 81.1373998,143.080308 80.9853991,143.320309 C80.8333983,143.560311 80.6973997,143.752309 80.5773991,143.896309 C80.4573985,144.04031 80.3093999,144.200309 80.1333991,144.376309 C79.9573982,144.55231 79.7893999,144.688309 79.6293991,144.784309 C79.2293971,145.024311 78.8534008,145.144309 78.5013991,145.144309 C77.8453958,145.144309 77.3334009,144.936312 76.9653991,144.520309 C76.2293954,145.064312 75.5494022,145.336309 74.9253991,145.336309 C73.7573932,145.336309 73.1733991,144.600317 73.1733991,143.128309 C73.1733991,142.456306 73.3493973,141.736313 73.7013991,140.968309 C74.1814015,139.848304 74.8573947,138.896313 75.7293991,138.112309 C76.6014034,137.328306 77.4293951,136.936309 78.2133991,136.936309 L78.2133991,136.936309 Z M78.4773991,137.680309 C78.0453969,137.680309 77.533402,137.968307 76.9413991,138.544309 C76.3493961,139.120312 75.8214014,139.904304 75.3573991,140.896309 C74.7973963,142.048315 74.5173991,142.992306 74.5173991,143.728309 C74.5173991,144.464313 74.7973963,144.832309 75.3573991,144.832309 C75.7574011,144.832309 76.2053966,144.616312 76.7013991,144.184309 C76.4453978,143.816308 76.3173991,143.424312 76.3173991,143.008309 C76.3493992,142.320306 76.6293964,141.976309 77.1573991,141.976309 C77.3654001,141.976309 77.5373984,142.048309 77.6733991,142.192309 C77.8093997,142.33631 77.8773991,142.468309 77.8773991,142.588309 C77.8773991,142.70831 77.8613992,142.832309 77.8293991,142.960309 C78.1014004,142.560307 78.4133973,141.992313 78.7653991,141.256309 C79.1654011,140.440305 79.3653991,139.640313 79.3653991,138.856309 C79.3653991,138.072306 79.069402,137.680309 78.4773991,137.680309 L78.4773991,137.680309 Z M79.0533991,153.688309 C78.1733947,153.688309 77.7333991,153.248314 77.7333991,152.368309 C77.7333991,151.104303 78.5573908,148.528329 80.2053991,144.640309 C80.0133981,144.320308 79.9173991,144.05631 79.9173991,143.848309 C79.9173991,143.176306 80.0693975,142.728311 80.3733991,142.504309 C80.5974002,142.312308 80.7853983,142.216309 80.9373991,142.216309 C81.0893998,142.216309 81.1893988,142.224309 81.2373991,142.240309 C83.0614082,138.128289 84.7013918,134.712323 86.1573991,131.992309 C86.4454005,131.416307 86.7413975,130.992311 87.0453991,130.720309 C87.3494006,130.448308 87.7333967,130.312309 88.1973991,130.312309 C88.2613994,130.312309 88.4213978,130.336309 88.6773991,130.384309 C88.9334003,130.43231 89.1253984,130.44831 89.2533991,130.432309 C88.5013953,131.136313 87.4454059,132.688297 86.0853991,135.088309 C84.7253923,137.488321 83.4374051,140.056296 82.2213991,142.792309 C82.5894009,143.240312 82.8453983,143.840306 82.9893991,144.592309 L83.0613991,144.904309 L83.1333991,144.904309 C83.5654012,144.904309 84.0213967,144.652312 84.5013991,144.148309 C84.9814015,143.644307 85.3733975,143.124312 85.6773991,142.588309 C85.9814006,142.052307 86.2293981,141.580311 86.4213991,141.172309 C86.6134,140.764307 86.7333988,140.54431 86.7813991,140.512309 C86.8293993,140.480309 86.8733989,140.468309 86.9133991,140.476309 C86.9533993,140.484309 86.9893989,140.500309 87.0213991,140.524309 C87.0533992,140.54831 87.0693991,140.588309 87.0693991,140.644309 C87.0693991,140.70031 87.0533992,140.760309 87.0213991,140.824309 C85.6933924,143.848325 84.3894055,145.360309 83.1093991,145.360309 C83.1253991,145.616311 83.1333991,146.036307 83.1333991,146.620309 C83.1333991,147.204312 82.9894005,148.072304 82.7013991,149.224309 C82.4133976,150.376315 81.9294025,151.408305 81.2493991,152.320309 C80.5693957,153.232314 79.837403,153.688309 79.0533991,153.688309 L79.0533991,153.688309 Z M79.0293991,152.368309 C79.0293991,152.832312 79.1573978,153.064309 79.4133991,153.064309 C79.7174006,153.064309 80.1373964,152.708313 80.6733991,151.996309 C81.2094017,151.284306 81.6653972,150.308316 82.0413991,149.068309 C82.4174009,147.828303 82.6053991,146.704314 82.6053991,145.696309 L82.6053991,145.456309 L82.3893991,145.456309 C81.9253967,145.456309 81.5334007,145.328311 81.2133991,145.072309 C79.7573918,148.752328 79.0293991,151.184304 79.0293991,152.368309 L79.0293991,152.368309 Z M82.4133991,145.000309 L82.5573991,145.000309 C82.5093988,144.312306 82.3174007,143.760312 81.9813991,143.344309 L81.4533991,144.544309 C81.6133999,144.848311 81.9333967,145.000309 82.4133991,145.000309 L82.4133991,145.000309 Z M115.317399,145.144309 C114.597395,145.928313 113.769404,146.320309 112.833399,146.320309 C111.897394,146.320309 110.997403,145.868314 110.133399,144.964309 C109.269395,144.060305 108.549402,142.768318 107.973399,141.088309 C107.397396,139.408301 106.9974,137.904316 106.773399,136.576309 C106.261396,137.600315 105.8614,138.380307 105.573399,138.916309 C105.285398,139.452312 104.861402,140.136305 104.301399,140.968309 C103.741396,141.800314 103.157402,142.552306 102.549399,143.224309 C100.66139,145.25632 98.525411,146.272309 96.1413991,146.272309 C93.9813883,146.272309 92.6374017,145.688315 92.1093991,144.520309 C91.9813984,144.248308 91.9173991,143.932311 91.9173991,143.572309 C91.9173991,143.212308 92.1013972,142.824312 92.4693991,142.408309 C93.061402,141.752306 93.8773939,141.424309 94.9173991,141.424309 C95.6214026,141.424309 96.3653951,141.560308 97.1493991,141.832309 C97.3574001,141.91231 97.4373993,142.000309 97.3893991,142.096309 C97.3413988,142.19231 97.1334009,142.16831 96.7653991,142.024309 C96.3973972,141.880309 95.9534017,141.808309 95.4333991,141.808309 C94.9133965,141.808309 94.4654009,142.008307 94.0893991,142.408309 C93.7133972,142.808311 93.5253991,143.224307 93.5253991,143.656309 C93.5253991,143.84831 93.5653987,144.056308 93.6453991,144.280309 C93.9654007,145.112314 94.7173931,145.528309 95.9013991,145.528309 C97.2134056,145.528309 98.373394,145.136313 99.3813991,144.352309 C99.9574019,143.904307 100.477397,143.448312 100.941399,142.984309 C101.405401,142.520307 101.901396,141.896313 102.429399,141.112309 C103.261403,139.912303 103.969396,138.796315 104.553399,137.764309 C105.137402,136.732304 105.769396,135.604316 106.449399,134.380309 C107.129402,133.156303 107.629397,132.264312 107.949399,131.704309 C108.973404,129.960301 109.909395,128.624314 110.757399,127.696309 C109.861395,127.616309 108.965404,127.576309 108.069399,127.576309 C106.021389,127.576309 103.985409,127.788307 101.961399,128.212309 C99.9373889,128.636312 98.333405,129.336305 97.1493991,130.312309 C95.6613916,131.544316 94.9173991,132.856302 94.9173991,134.248309 C94.9173991,134.920313 95.1573967,135.516307 95.6373991,136.036309 C96.1174015,136.556312 96.765395,136.816309 97.5813991,136.816309 C98.573404,136.816309 99.3973958,136.464313 100.053399,135.760309 C100.709402,135.056306 101.053399,134.496312 101.085399,134.080309 C101.101399,133.872308 101.149399,133.768309 101.229399,133.768309 C101.3574,133.768309 101.413399,133.888308 101.397399,134.128309 C101.285398,134.896313 100.973402,135.544307 100.461399,136.072309 C99.5653946,137.000314 98.4934053,137.464309 97.2453991,137.464309 C96.3013943,137.464309 95.4814025,137.144313 94.7853991,136.504309 C94.0893956,135.864306 93.7413991,135.008315 93.7413991,133.936309 C93.7413991,132.352302 94.5133913,130.932316 96.0573991,129.676309 C97.6014068,128.420303 99.6293865,127.608311 102.141399,127.240309 C103.933408,126.984308 105.585391,126.856309 107.097399,126.856309 C108.609407,126.856309 110.005393,126.944309 111.285399,127.120309 C111.701401,126.672307 111.989398,126.448309 112.149399,126.448309 C112.2454,126.448309 112.293399,126.524309 112.293399,126.676309 C112.293399,126.82831 112.253399,127.016308 112.173399,127.240309 C113.357405,127.43231 114.149397,127.584309 114.549399,127.696309 C116.949411,128.400313 118.149399,129.488302 118.149399,130.960309 C118.149399,131.904314 117.565405,132.840305 116.397399,133.768309 C114.925392,134.904315 112.957411,135.672307 110.493399,136.072309 C109.789396,136.18431 109.053403,136.256309 108.285399,136.288309 C108.797402,139.120324 109.685393,141.5043 110.949399,143.440309 C111.381401,144.096313 111.777397,144.572308 112.137399,144.868309 C112.497401,145.164311 112.885397,145.312309 113.301399,145.312309 C113.877402,145.312309 114.489396,144.992313 115.137399,144.352309 C115.785402,143.712306 116.533395,142.544318 117.381399,140.848309 C117.5094,140.608308 117.637398,140.488309 117.765399,140.488309 C117.8934,140.488309 117.9014,140.608308 117.789399,140.848309 C116.861394,142.92832 116.037403,144.360306 115.317399,145.144309 L115.317399,145.144309 Z M116.421399,130.600309 C116.421399,130.472309 116.405399,130.34431 116.373399,130.216309 C116.197398,129.320305 115.485405,128.680311 114.237399,128.296309 C113.853397,128.184309 113.069405,128.03231 111.885399,127.840309 C111.597398,128.336312 110.893405,129.4963 109.773399,131.320309 C108.653393,133.144319 107.821402,134.592304 107.277399,135.664309 C107.629401,135.600309 108.145396,135.54031 108.825399,135.484309 C109.505402,135.428309 109.997398,135.38431 110.301399,135.352309 C112.125408,135.128308 113.677393,134.416315 114.957399,133.216309 C115.933404,132.320305 116.421399,131.448314 116.421399,130.600309 L116.421399,130.600309 Z M120.093399,145.384309 C119.869398,145.57631 119.6214,145.672309 119.349399,145.672309 C119.077398,145.672309 118.8694,145.58831 118.725399,145.420309 C118.581398,145.252309 118.509399,145.10431 118.509399,144.976309 C118.509399,144.544307 118.637398,144.22431 118.893399,144.016309 C119.1494,143.808308 119.413398,143.704309 119.685399,143.704309 C119.9574,143.704309 120.165398,143.788309 120.309399,143.956309 C120.4534,144.12431 120.525399,144.272309 120.525399,144.400309 C120.525399,144.52831 120.509399,144.676309 120.477399,144.844309 C120.445399,145.01231 120.3174,145.192308 120.093399,145.384309 L120.093399,145.384309 Z M148.893399,129.040309 C148.893399,128.480307 148.637402,127.952312 148.125399,127.456309 C147.389395,126.752306 146.373406,126.400309 145.077399,126.400309 C143.941393,126.400309 142.685406,126.648307 141.309399,127.144309 C140.589395,127.400311 139.965402,127.752307 139.437399,128.200309 C138.621395,128.904313 138.213399,129.608306 138.213399,130.312309 C138.213399,131.256314 138.813393,132.104306 140.013399,132.856309 C140.461401,133.128311 141.361392,133.572306 142.713399,134.188309 C144.065406,134.804313 145.053396,135.304308 145.677399,135.688309 C146.621404,136.264312 147.273397,136.880306 147.633399,137.536309 C147.993401,138.192313 148.173399,138.800307 148.173399,139.360309 C148.173399,140.160313 147.909402,140.976305 147.381399,141.808309 C146.453394,143.296317 145.093408,144.576304 143.301399,145.648309 C141.237389,146.896316 138.749414,147.520309 135.837399,147.520309 C133.037385,147.520309 130.813407,146.808317 129.165399,145.384309 C127.885393,144.296304 127.245399,142.896318 127.245399,141.184309 C127.245399,140.096304 127.641395,138.896316 128.433399,137.584309 C129.225403,136.272303 130.197393,135.344312 131.349399,134.800309 C131.5894,134.704309 131.769398,134.672309 131.889399,134.704309 C132.0094,134.73631 131.909401,134.888308 131.589399,135.160309 C130.901396,135.704312 130.349401,136.304306 129.933399,136.960309 C129.037395,138.368316 128.589399,139.896301 128.589399,141.544309 C128.589399,142.632315 128.893396,143.584305 129.501399,144.400309 C130.589404,145.856317 132.477386,146.680308 135.165399,146.872309 C135.469401,146.90431 135.921396,146.920309 136.521399,146.920309 C137.121402,146.920309 137.937394,146.812311 138.969399,146.596309 C140.001404,146.380308 140.997394,146.024312 141.957399,145.528309 C144.021409,144.440304 145.357396,143.032318 145.965399,141.304309 C146.1574,140.792307 146.253399,140.296312 146.253399,139.816309 C146.253399,138.728304 145.765404,137.768314 144.789399,136.936309 C144.261396,136.520307 143.185407,135.964313 141.561399,135.268309 C139.937391,134.572306 138.845402,134.040311 138.285399,133.672309 C137.053393,132.840305 136.437399,131.856315 136.437399,130.720309 C136.437399,129.728304 136.989394,128.760314 138.093399,127.816309 C139.677407,126.472303 141.917385,125.800309 144.813399,125.800309 C146.173406,125.800309 147.281395,126.004307 148.137399,126.412309 C148.993403,126.820311 149.517398,127.432305 149.709399,128.248309 C149.741399,128.40831 149.757399,128.568309 149.757399,128.728309 C149.757399,129.352313 149.469402,129.912307 148.893399,130.408309 C148.493397,130.728311 147.957402,130.984308 147.285399,131.176309 C146.997398,131.25631 146.837399,131.22431 146.805399,131.080309 C146.773399,130.872308 146.973397,130.74431 147.405399,130.696309 C148.173403,130.600309 148.645398,130.216313 148.821399,129.544309 C148.869399,129.368309 148.893399,129.20031 148.893399,129.040309 L148.893399,129.040309 Z M154.533399,144.256309 C154.533399,144.704312 154.693397,144.928309 155.013399,144.928309 C155.765403,144.928309 156.829392,143.520324 158.205399,140.704309 C158.3174,140.480308 158.417399,140.392309 158.505399,140.440309 C158.593399,140.48831 158.637399,140.552309 158.637399,140.632309 C158.637399,140.71231 158.5454,140.940308 158.361399,141.316309 C158.177398,141.692311 157.9934,142.052308 157.809399,142.396309 C157.625398,142.740311 157.357401,143.192307 157.005399,143.752309 C156.269395,144.872315 155.485403,145.432309 154.653399,145.432309 C154.109396,145.432309 153.677401,145.208312 153.357399,144.760309 C153.213398,144.552308 153.141399,144.268311 153.141399,143.908309 C153.141399,143.548308 153.221398,143.112312 153.381399,142.600309 C153.5414,142.088307 153.981395,141.256315 154.701399,140.104309 C154.8774,139.816308 154.965399,139.58831 154.965399,139.420309 C154.965399,139.252309 154.8294,139.168309 154.557399,139.168309 C154.285398,139.168309 153.765403,139.528306 152.997399,140.248309 C151.845393,141.304315 150.725404,142.888299 149.637399,145.000309 C149.525398,145.240311 149.229401,145.360309 148.749399,145.360309 C148.317397,145.39231 148.0454,145.440309 147.933399,145.504309 C150.973414,139.184278 153.173392,134.776322 154.533399,132.280309 C154.837401,131.720307 155.105398,131.328311 155.337399,131.104309 C155.5694,130.880308 155.845397,130.768309 156.165399,130.768309 C156.245399,130.768309 156.413398,130.788309 156.669399,130.828309 C156.9254,130.86831 157.117398,130.88031 157.245399,130.864309 C156.765397,131.360312 155.905405,132.732298 154.665399,134.980309 C153.425393,137.228321 152.237405,139.512298 151.101399,141.832309 C151.853403,140.888305 152.529396,140.152312 153.129399,139.624309 C153.729402,139.096307 154.461395,138.596312 155.325399,138.124309 C156.189403,137.652307 156.821397,137.416309 157.221399,137.416309 C157.3174,137.416309 157.405399,137.432309 157.485399,137.464309 C155.517389,140.920327 154.533399,143.184304 154.533399,144.256309 L154.533399,144.256309 Z M165.429399,138.808309 C165.429399,139.512313 165.245401,140.288305 164.877399,141.136309 C164.509397,141.984314 164.001402,142.800306 163.353399,143.584309 C162.705396,144.368313 161.917404,144.904308 160.989399,145.192309 C160.637397,145.28831 160.233401,145.336309 159.777399,145.336309 C159.321397,145.336309 158.821402,145.192311 158.277399,144.904309 L155.997399,150.592309 C155.757398,151.104312 155.5334,151.440309 155.325399,151.600309 C155.117398,151.76031 154.9174,151.840309 154.725399,151.840309 L154.377399,151.840309 C154.337399,151.840309 154.1934,151.81631 153.945399,151.768309 C153.697398,151.720309 153.5094,151.704309 153.381399,151.720309 C153.733401,151.384308 154.625392,149.788324 156.057399,146.932309 C157.489406,144.076295 158.301398,142.152314 158.493399,141.160309 C158.317398,141.416311 158.1494,141.552309 157.989399,141.568309 C157.893399,141.568309 157.893399,141.47631 157.989399,141.292309 C158.0854,141.108309 158.245398,140.752312 158.469399,140.224309 C158.7574,139.536306 158.901399,138.900312 158.901399,138.316309 C158.901399,137.732307 158.7894,137.39231 158.565399,137.296309 C159.525404,137.136309 160.085398,137.060309 160.245399,137.068309 C160.4054,137.076309 160.505399,137.144309 160.545399,137.272309 C160.585399,137.40031 160.605399,137.544309 160.605399,137.704309 C160.605399,138.680314 160.381401,139.768303 159.933399,140.968309 L160.413399,140.200309 C160.989402,139.272305 161.409398,138.672311 161.673399,138.400309 C161.9374,138.128308 162.221398,137.848311 162.525399,137.560309 C162.989401,137.112307 163.437397,136.888309 163.869399,136.888309 C163.9974,136.888309 164.117398,136.904309 164.229399,136.936309 C165.029403,137.14431 165.429399,137.768304 165.429399,138.808309 L165.429399,138.808309 Z M164.277399,138.568309 C164.277399,138.312308 164.2254,138.076311 164.121399,137.860309 C164.017399,137.644308 163.8534,137.536309 163.629399,137.536309 C163.069396,137.536309 162.417403,138.056304 161.673399,139.096309 C160.929395,140.136315 159.861406,141.952296 158.469399,144.544309 C158.6774,144.75231 158.965397,144.856309 159.333399,144.856309 C159.701401,144.856309 160.221396,144.576312 160.893399,144.016309 C161.965404,143.120305 162.861395,142.008316 163.581399,140.680309 C164.045401,139.816305 164.277399,139.112312 164.277399,138.568309 L164.277399,138.568309 Z M169.533399,135.712309 C169.533399,136.432313 169.077404,137.112306 168.165399,137.752309 C168.485401,137.76831 168.913396,137.776309 169.449399,137.776309 C169.985402,137.776309 170.661395,137.73631 171.477399,137.656309 C171.509399,137.70431 171.525399,137.832308 171.525399,138.040309 C171.525399,138.24831 171.4294,138.556307 171.237399,138.964309 C171.045398,139.372311 170.8734,139.724308 170.721399,140.020309 C170.569398,140.316311 170.4254,140.596308 170.289399,140.860309 C170.153398,141.124311 170.0014,141.448308 169.833399,141.832309 C169.665398,142.216311 169.5254,142.568308 169.413399,142.888309 C169.013397,144.104316 169.077396,144.712309 169.605399,144.712309 C170.277402,144.712309 171.269392,143.376323 172.581399,140.704309 C172.6934,140.496308 172.785399,140.416309 172.857399,140.464309 C172.929399,140.51231 172.965399,140.572309 172.965399,140.644309 C172.965399,140.71631 172.8614,140.964307 172.653399,141.388309 C172.445398,141.812312 172.2214,142.248307 171.981399,142.696309 C171.741398,143.144312 171.365402,143.664306 170.853399,144.256309 C170.245396,144.992313 169.661402,145.360309 169.101399,145.360309 C168.477396,145.360309 168.0454,144.984313 167.805399,144.232309 C167.757399,144.088309 167.733399,143.872311 167.733399,143.584309 C167.733399,143.296308 167.825398,142.912312 168.009399,142.432309 C168.1934,141.952307 168.485397,141.368313 168.885399,140.680309 C169.285401,139.992306 169.509399,139.58831 169.557399,139.468309 C169.605399,139.348309 169.629399,139.23231 169.629399,139.120309 C169.629399,138.624307 168.989405,138.36031 167.709399,138.328309 L167.421399,139.096309 C166.413394,141.736323 165.445404,143.504305 164.517399,144.400309 C164.357398,144.54431 164.277399,144.496311 164.277399,144.256309 C164.277399,144.208309 164.293399,144.15231 164.325399,144.088309 C165.221404,142.904304 165.997396,141.504318 166.653399,139.888309 C167.309402,138.272301 167.765398,136.736317 168.021399,135.280309 C168.1174,134.784307 168.341397,134.536309 168.693399,134.536309 C169.045401,134.536309 169.301398,134.760307 169.461399,135.208309 C169.509399,135.35231 169.533399,135.520308 169.533399,135.712309 L169.533399,135.712309 Z M173.589399,141.640309 C173.365398,142.184312 173.253399,142.792306 173.253399,143.464309 C173.253399,143.912312 173.353398,144.268308 173.553399,144.532309 C173.7534,144.796311 174.037397,144.928309 174.405399,144.928309 C175.861406,144.928309 177.181393,143.560323 178.365399,140.824309 C178.4774,140.568308 178.613398,140.456309 178.773399,140.488309 C178.837399,140.50431 178.869399,140.544309 178.869399,140.608309 C178.869399,140.67231 178.689401,141.092306 178.329399,141.868309 C177.969397,142.644313 177.605401,143.272307 177.237399,143.752309 C176.421395,144.872315 175.413405,145.432309 174.213399,145.432309 C173.573396,145.432309 173.029401,145.224312 172.581399,144.808309 C172.133397,144.392307 171.909399,143.824313 171.909399,143.104309 C171.909399,142.384306 172.081397,141.620313 172.425399,140.812309 C172.769401,140.004305 173.237396,139.252313 173.829399,138.556309 C174.421402,137.860306 175.101395,137.352311 175.869399,137.032309 C176.237401,136.872309 176.589397,136.792309 176.925399,136.792309 C177.261401,136.792309 177.573398,136.888308 177.861399,137.080309 C178.1334,137.304311 178.269399,137.552308 178.269399,137.824309 C178.269399,138.784314 177.693405,139.704305 176.541399,140.584309 C176.189397,140.856311 175.693402,141.100308 175.053399,141.316309 C174.413396,141.532311 173.925401,141.640309 173.589399,141.640309 L173.589399,141.640309 Z M177.621399,137.800309 C177.621399,137.480308 177.4934,137.320309 177.237399,137.320309 C176.789397,137.320309 176.109404,137.872304 175.197399,138.976309 C174.653396,139.648313 174.173401,140.400305 173.757399,141.232309 C174.0294,141.232309 174.425396,141.13631 174.945399,140.944309 C175.465402,140.752308 175.917397,140.496311 176.301399,140.176309 C177.181403,139.424306 177.621399,138.632314 177.621399,137.800309 L177.621399,137.800309 Z M185.685399,137.464309 C183.717389,140.920327 182.733399,143.176304 182.733399,144.232309 C182.733399,144.648312 182.885398,144.856309 183.189399,144.856309 C184.005403,144.856309 185.101392,143.472323 186.477399,140.704309 C186.5734,140.480308 186.669399,140.392309 186.765399,140.440309 C186.8614,140.48831 186.909399,140.552309 186.909399,140.632309 C186.909399,140.71231 186.877399,140.808309 186.813399,140.920309 C185.965395,142.632318 185.249402,143.812306 184.665399,144.460309 C184.081396,145.108313 183.497402,145.432309 182.913399,145.432309 C182.329396,145.432309 181.885401,145.208312 181.581399,144.760309 C181.421398,144.552308 181.341399,144.268311 181.341399,143.908309 C181.341399,143.548308 181.421398,143.112312 181.581399,142.600309 C181.7414,142.088307 182.181395,141.256315 182.901399,140.104309 C183.0774,139.816308 183.165399,139.58831 183.165399,139.420309 C183.165399,139.252309 183.0294,139.168309 182.757399,139.168309 C182.485398,139.168309 181.965403,139.528306 181.197399,140.248309 C180.045393,141.304315 178.933404,142.888299 177.861399,145.000309 C177.765399,145.16031 177.6574,145.260309 177.537399,145.300309 C177.417398,145.34031 177.181401,145.368309 176.829399,145.384309 C176.477397,145.40031 176.2454,145.440309 176.133399,145.504309 C176.3894,144.992307 176.893395,143.944317 177.645399,142.360309 C178.989406,139.560295 179.869397,137.960311 180.285399,137.560309 C180.4774,137.368308 180.741397,137.272309 181.077399,137.272309 C181.141399,137.272309 181.305398,137.296309 181.569399,137.344309 C181.8334,137.39231 182.029398,137.40031 182.157399,137.368309 C181.565396,137.688311 180.597406,139.192296 179.253399,141.880309 C180.005403,140.952305 180.689396,140.212312 181.305399,139.660309 C181.921402,139.108307 182.661395,138.596312 183.525399,138.124309 C184.389403,137.652307 185.021397,137.416309 185.421399,137.416309 C185.5174,137.416309 185.605399,137.432309 185.685399,137.464309 L185.685399,137.464309 Z M184.821399,152.920309 C183.317392,152.920309 182.565399,152.304316 182.565399,151.072309 C182.565399,150.048304 183.261392,149.128314 184.653399,148.312309 C185.837405,147.624306 187.34939,146.976312 189.189399,146.368309 C190.037403,146.096308 190.653397,145.88031 191.037399,145.720309 C191.453401,144.504303 191.661399,143.176317 191.661399,141.736309 C191.661399,141.448308 191.645399,141.23231 191.613399,141.088309 C191.165397,142.000314 190.549403,142.936305 189.765399,143.896309 C188.837394,145.048315 187.917404,145.496311 187.005399,145.240309 C186.173395,144.888308 185.757399,144.200315 185.757399,143.176309 C185.757399,141.800303 186.445392,140.288318 187.821399,138.640309 C188.573403,137.744305 189.453394,137.176311 190.461399,136.936309 C190.7334,136.856309 191.005398,136.816309 191.277399,136.816309 C191.997403,136.816309 192.701396,137.056307 193.389399,137.536309 C193.6454,137.74431 193.773399,137.920309 193.773399,138.064309 C193.773399,138.20831 193.7254,138.348309 193.629399,138.484309 C193.533399,138.62031 193.4334,138.63631 193.329399,138.532309 C193.225399,138.428309 193.157399,138.32831 193.125399,138.232309 C192.917398,137.640306 192.581401,137.344309 192.117399,137.344309 C191.269395,137.344309 190.317404,137.936304 189.261399,139.120309 C188.669396,139.792313 188.157401,140.512306 187.725399,141.280309 C187.197396,142.240314 186.933399,142.980307 186.933399,143.500309 C186.933399,144.020312 187.093397,144.368309 187.413399,144.544309 C187.5254,144.59231 187.637398,144.616309 187.749399,144.616309 C188.117401,144.616309 188.577396,144.364312 189.129399,143.860309 C189.681402,143.356307 190.193397,142.716313 190.665399,141.940309 C191.137401,141.164306 191.437398,140.560312 191.565399,140.128309 C191.6934,139.696307 191.849398,139.42431 192.033399,139.312309 C192.2174,139.200309 192.421398,139.13631 192.645399,139.120309 C192.8694,139.104309 193.021399,139.06431 193.101399,139.000309 C193.2294,139.720313 193.293399,140.564305 193.293399,141.532309 C193.293399,142.500314 193.125401,143.600303 192.789399,144.832309 C193.525403,144.304307 194.049397,143.832312 194.361399,143.416309 C194.673401,143.000307 194.921398,142.624311 195.105399,142.288309 C195.2894,141.952308 195.453398,141.620311 195.597399,141.292309 C195.7414,140.964308 195.837399,140.75231 195.885399,140.656309 C195.933399,140.560309 196.013398,140.50031 196.125399,140.476309 C196.2374,140.452309 196.293399,140.504309 196.293399,140.632309 C196.293399,140.71231 196.269399,140.808309 196.221399,140.920309 C195.517396,142.376317 194.929401,143.428306 194.457399,144.076309 C193.985397,144.724313 193.341403,145.240308 192.525399,145.624309 C192.141397,146.712315 191.585403,147.792304 190.857399,148.864309 C190.129395,149.936315 189.213405,150.880305 188.109399,151.696309 C187.005394,152.512314 185.909404,152.920309 184.821399,152.920309 L184.821399,152.920309 Z M183.069399,151.528309 C183.069399,152.136312 183.461395,152.440309 184.245399,152.440309 C184.709401,152.440309 185.233396,152.304311 185.817399,152.032309 C186.401402,151.760308 186.885397,151.480311 187.269399,151.192309 C187.925402,150.664307 188.645395,149.880315 189.429399,148.840309 C190.021402,148.008305 190.477397,147.200313 190.797399,146.416309 L189.957399,146.704309 C187.461387,147.568314 185.701404,148.336306 184.677399,149.008309 C183.925395,149.504312 183.4294,150.136306 183.189399,150.904309 C183.109399,151.144311 183.069399,151.352309 183.069399,151.528309 L183.069399,151.528309 Z M196.941399,141.640309 C196.717398,142.184312 196.605399,142.792306 196.605399,143.464309 C196.605399,143.912312 196.705398,144.268308 196.905399,144.532309 C197.1054,144.796311 197.389397,144.928309 197.757399,144.928309 C199.213406,144.928309 200.533393,143.560323 201.717399,140.824309 C201.8294,140.568308 201.965398,140.456309 202.125399,140.488309 C202.189399,140.50431 202.221399,140.544309 202.221399,140.608309 C202.221399,140.67231 202.041401,141.092306 201.681399,141.868309 C201.321397,142.644313 200.957401,143.272307 200.589399,143.752309 C199.773395,144.872315 198.765405,145.432309 197.565399,145.432309 C196.925396,145.432309 196.381401,145.224312 195.933399,144.808309 C195.485397,144.392307 195.261399,143.824313 195.261399,143.104309 C195.261399,142.384306 195.433397,141.620313 195.777399,140.812309 C196.121401,140.004305 196.589396,139.252313 197.181399,138.556309 C197.773402,137.860306 198.453395,137.352311 199.221399,137.032309 C199.589401,136.872309 199.941397,136.792309 200.277399,136.792309 C200.613401,136.792309 200.925398,136.888308 201.213399,137.080309 C201.4854,137.304311 201.621399,137.552308 201.621399,137.824309 C201.621399,138.784314 201.045405,139.704305 199.893399,140.584309 C199.541397,140.856311 199.045402,141.100308 198.405399,141.316309 C197.765396,141.532311 197.277401,141.640309 196.941399,141.640309 L196.941399,141.640309 Z M200.973399,137.800309 C200.973399,137.480308 200.8454,137.320309 200.589399,137.320309 C200.141397,137.320309 199.461404,137.872304 198.549399,138.976309 C198.005396,139.648313 197.525401,140.400305 197.109399,141.232309 C197.3814,141.232309 197.777396,141.13631 198.297399,140.944309 C198.817402,140.752308 199.269397,140.496311 199.653399,140.176309 C200.533403,139.424306 200.973399,138.632314 200.973399,137.800309 L200.973399,137.800309 Z M205.029399,135.712309 C205.029399,136.432313 204.573404,137.112306 203.661399,137.752309 C203.981401,137.76831 204.409396,137.776309 204.945399,137.776309 C205.481402,137.776309 206.157395,137.73631 206.973399,137.656309 C207.005399,137.70431 207.021399,137.832308 207.021399,138.040309 C207.021399,138.24831 206.9254,138.556307 206.733399,138.964309 C206.541398,139.372311 206.3694,139.724308 206.217399,140.020309 C206.065398,140.316311 205.9214,140.596308 205.785399,140.860309 C205.649398,141.124311 205.4974,141.448308 205.329399,141.832309 C205.161398,142.216311 205.0214,142.568308 204.909399,142.888309 C204.509397,144.104316 204.573396,144.712309 205.101399,144.712309 C205.773402,144.712309 206.765392,143.376323 208.077399,140.704309 C208.1894,140.496308 208.281399,140.416309 208.353399,140.464309 C208.425399,140.51231 208.461399,140.572309 208.461399,140.644309 C208.461399,140.71631 208.3574,140.964307 208.149399,141.388309 C207.941398,141.812312 207.7174,142.248307 207.477399,142.696309 C207.237398,143.144312 206.861402,143.664306 206.349399,144.256309 C205.741396,144.992313 205.157402,145.360309 204.597399,145.360309 C203.973396,145.360309 203.5414,144.984313 203.301399,144.232309 C203.253399,144.088309 203.229399,143.872311 203.229399,143.584309 C203.229399,143.296308 203.321398,142.912312 203.505399,142.432309 C203.6894,141.952307 203.981397,141.368313 204.381399,140.680309 C204.781401,139.992306 205.005399,139.58831 205.053399,139.468309 C205.101399,139.348309 205.125399,139.23231 205.125399,139.120309 C205.125399,138.624307 204.485405,138.36031 203.205399,138.328309 L202.917399,139.096309 C201.909394,141.736323 200.941404,143.504305 200.013399,144.400309 C199.853398,144.54431 199.773399,144.496311 199.773399,144.256309 C199.773399,144.208309 199.789399,144.15231 199.821399,144.088309 C200.717404,142.904304 201.493396,141.504318 202.149399,139.888309 C202.805402,138.272301 203.261398,136.736317 203.517399,135.280309 C203.6134,134.784307 203.837397,134.536309 204.189399,134.536309 C204.541401,134.536309 204.797398,134.760307 204.957399,135.208309 C205.005399,135.35231 205.029399,135.520308 205.029399,135.712309 L205.029399,135.712309 Z" id="of-R.-Shprenger" transform="translate(140.817399, 139.744309) rotate(-30.000000) translate(-140.817399, -139.744309) "></path>
        </g>
    </g>
</svg>